<mxfile host="app.diagrams.net" modified="2023-12-25T16:07:02.369Z" agent="Mozilla/5.0 (X11; Linux x86_64; rv:121.0) Gecko/20100101 Firefox/121.0" version="22.1.11" etag="Bg3wEl95kF4-v5jk6KEd" type="github">
  <diagram name="Page-1" id="UjCzz5jqUncTw9lYgrgC">
    <mxGraphModel>
      <root>
        <mxCell id="0" />
        <mxCell id="1" parent="0" />
      </root>
    </mxGraphModel>
  </diagram>
</mxfile>
